<?xml version="1.0" standalone="no"?>
<!DOCTYPE svg PUBLIC "-//W3C//DTD SVG 20010904//EN"
 "http://www.w3.org/TR/2001/REC-SVG-20010904/DTD/svg10.dtd">
<svg version="1.0" xmlns="http://www.w3.org/2000/svg" viewBox="0 0 1222.000000 1000.000000"
 preserveAspectRatio="xMidYMid meet">

<g transform="translate(0.000000,1000.000000) scale(0.100000,-0.100000)"
fill="#000000" stroke="none">
<path d="M8913 9645 c-94 -8 -319 -32 -500 -54 -180 -23 -429 -48 -553 -56
-291 -19 -400 -30 -655 -66 -170 -24 -267 -32 -510 -39 -165 -5 -390 -18 -500
-29 -312 -32 -508 -42 -950 -48 -323 -4 -461 -2 -650 11 -132 9 -325 21 -430
26 -104 5 -255 16 -335 22 -106 10 -448 13 -1275 12 l-1130 0 -80 -22 c-44
-12 -96 -33 -116 -47 -104 -68 -181 -195 -203 -335 -31 -197 -58 -1799 -36
-2170 6 -107 15 -487 20 -845 8 -588 21 -971 50 -1370 5 -77 14 -277 20 -445
11 -313 19 -432 45 -650 19 -153 33 -520 45 -1155 8 -467 17 -589 49 -714 6
-20 28 -128 51 -241 61 -306 106 -422 205 -538 43 -50 65 -62 183 -103 48 -17
155 -62 237 -101 83 -39 175 -79 205 -89 95 -34 365 -79 635 -106 259 -26 264
-26 1540 -35 2867 -19 2947 -20 3100 -8 136 10 464 45 1056 115 604 70 879 89
1554 105 466 11 498 15 683 81 64 23 156 47 204 55 122 19 272 78 326 128 34
30 60 85 77 162 14 57 14 118 5 487 -6 232 -16 454 -21 492 -11 79 -32 1554
-31 2175 0 223 2 747 4 1165 2 649 0 799 -15 1025 -10 146 -22 495 -28 775 -5
281 -11 524 -14 540 -2 17 -9 82 -15 145 -17 178 -47 361 -105 657 -61 306
-87 384 -212 642 -64 130 -85 163 -136 215 -55 55 -61 65 -62 104 0 32 -7 49
-28 70 l-27 27 -233 7 c-127 4 -315 13 -417 19 -275 18 -822 20 -1027 4z m922
-190 c121 -8 305 -18 409 -23 l188 -7 28 -50 c20 -36 39 -56 71 -72 24 -13 52
-33 63 -45 43 -52 176 -343 215 -470 44 -146 138 -676 161 -908 6 -63 13 -128
15 -145 3 -16 9 -259 14 -540 5 -280 18 -629 28 -775 15 -225 17 -376 14
-1005 -1 -407 -3 -933 -3 -1170 -1 -643 20 -2110 31 -2190 5 -38 15 -250 20
-470 11 -402 7 -489 -23 -514 -29 -24 -151 -63 -236 -77 -52 -8 -144 -33 -205
-56 -178 -65 -196 -67 -675 -78 -645 -15 -930 -34 -1539 -105 -630 -74 -922
-105 -1066 -115 -108 -8 -419 -10 -955 -6 -437 3 -1375 9 -2085 14 -1289 9
-1290 9 -1550 36 -237 24 -461 58 -569 87 -22 6 -111 44 -196 84 -85 40 -195
87 -243 104 -120 42 -123 44 -168 113 -51 79 -69 141 -130 433 -81 390 -78
356 -89 950 -11 611 -24 928 -45 1107 -24 202 -34 347 -45 653 -5 160 -17 396
-25 525 -31 479 -37 660 -45 1295 -5 358 -14 733 -20 835 -13 228 -3 1460 14
1793 13 223 13 228 39 255 37 39 43 75 19 115 -19 32 -19 35 -1 68 25 49 77
97 118 110 61 19 733 30 1566 25 435 -2 837 -9 895 -15 58 -6 200 -15 315 -21
116 -6 303 -17 417 -25 416 -30 1175 -13 1652 36 110 11 333 24 495 29 240 7
338 14 516 39 275 38 362 47 655 66 129 9 357 31 505 50 482 60 631 72 980 74
139 1 348 -5 470 -14z"/>
</g>
</svg>
